HIERARCHY
ROOT Hips
{
	OFFSET 0.000000 0.000000 0.000000
	CHANNELS 6 Xposition Yposition Zposition Zrotation Yrotation Xrotation 
	JOINT LeftUpLeg_virtual
	{
		OFFSET 0.000000 0.000000 0.000000
		CHANNELS 3 Zrotation Yrotation Xrotation
		JOINT LeftUpLeg
		{
			OFFSET 10.205400 -3.823500 0.155100
			CHANNELS 3 Zrotation Yrotation Xrotation
			JOINT LeftLeg
			{
				OFFSET 0.708757 -12.982077 0.567790
				CHANNELS 3 Zrotation Yrotation Xrotation
				JOINT LeftFoot
				{
					OFFSET -0.708756 -10.717838 -2.184338
					CHANNELS 3 Zrotation Yrotation Xrotation
					JOINT LeftToeBase
					{
						OFFSET 0.108149 -7.191104 7.560241
						CHANNELS 3 Zrotation Yrotation Xrotation
						End Site
						{
							OFFSET 0.000000 0.000000 0.000000
						}
					}
				}
			}
		}
	}
	JOINT RightUpLeg_virtual
	{
		OFFSET 0.000000 0.000000 0.000000
		CHANNELS 3 Zrotation Yrotation Xrotation
		JOINT RightUpLeg
		{
			OFFSET -10.205400 -3.823500 0.005500
			CHANNELS 3 Zrotation Yrotation Xrotation
			JOINT RightLeg
			{
				OFFSET -0.708756 -12.982134 0.610632
				CHANNELS 3 Zrotation Yrotation Xrotation
				JOINT RightFoot
				{
					OFFSET 0.708754 -10.717769 -1.945823
					CHANNELS 3 Zrotation Yrotation Xrotation
					JOINT RightToeBase
					{
						OFFSET -0.108140 -7.191069 7.372968
						CHANNELS 3 Zrotation Yrotation Xrotation
						End Site
						{
							OFFSET 0.000000 0.000000 0.000000
						}
					}
				}
			}
		}
	}
	JOINT Spine_virtual
	{
		OFFSET 0.000000 0.000000 0.000000
		CHANNELS 3 Zrotation Yrotation Xrotation
		JOINT Spine
		{
			OFFSET 0.000000 6.876099 0.125700
			CHANNELS 3 Zrotation Yrotation Xrotation
			JOINT Spine1
			{
				OFFSET 0.000000 8.022060 0.146608
				CHANNELS 3 Zrotation Yrotation Xrotation
				JOINT Spine2
				{
					OFFSET 0.000000 9.168068 0.167552
					CHANNELS 3 Zrotation Yrotation Xrotation
					JOINT Neck_virtual
					{
						OFFSET 0.000000 0.000000 0.000000
						CHANNELS 3 Zrotation Yrotation Xrotation
						JOINT Neck
						{
							OFFSET 0.000000 10.314075 0.188496
							CHANNELS 3 Zrotation Yrotation Xrotation
							JOINT Head
							{
								OFFSET 0.000000 7.643700 -2.377400
								CHANNELS 3 Zrotation Yrotation Xrotation
								End Site
								{
									OFFSET 0.000000 0.000000 0.000000
								}
							}
						}
					}
					JOINT LeftShoulder_virtual
					{
						OFFSET 0.000000 0.000000 0.000000
						CHANNELS 3 Zrotation Yrotation Xrotation
						JOINT LeftShoulder
						{
							OFFSET 4.392200 8.824978 0.174984
							CHANNELS 3 Zrotation Yrotation Xrotation
							JOINT LeftArm
							{
								OFFSET 8.771219 -2.981674 -0.026999
								CHANNELS 3 Zrotation Yrotation Xrotation
								JOINT LeftForeArm
								{
									OFFSET 8.512804 0.000000 -0.000000
									CHANNELS 3 Zrotation Yrotation Xrotation
									JOINT LeftHand
									{
										OFFSET 18.484802 0.000000 -0.000000
										CHANNELS 3 Zrotation Yrotation Xrotation
										End Site
										{
											OFFSET 0.000000 0.000000 0.000000
										}
									}
								}
							}
						}
					}
					JOINT RightShoulder_virtual
					{
						OFFSET 0.000000 0.000000 0.000000
						CHANNELS 3 Zrotation Yrotation Xrotation
						JOINT RightShoulder
						{
							OFFSET -4.392200 8.824993 0.141379
							CHANNELS 3 Zrotation Yrotation Xrotation
							JOINT RightArm
							{
								OFFSET -8.771282 -2.981682 -0.094208
								CHANNELS 3 Zrotation Yrotation Xrotation
								JOINT RightForeArm
								{
									OFFSET -8.494598 0.000000 0.000000
									CHANNELS 3 Zrotation Yrotation Xrotation
									JOINT RightHand
									{
										OFFSET -18.483803 0.000000 0.000001
										CHANNELS 3 Zrotation Yrotation Xrotation
										End Site
										{
											OFFSET 0.000000 0.000000 0.000000
										}
									}
								}
							}
						}
					}
				}
			}
		}
	}
}
MOTION
Frames: 12
Frame Time: 0.033333
-0.995796 35.701641 17.316420 -179.782969 6.871371 -179.872035 -3.507569 -3.334210 8.600763 -14.605566 2.871796 -14.131678 15.165820 7.947878 18.906672 -1.388684 2.305624 4.117681 0.000000 0.000000 0.000000 2.296402 -1.429767 6.014659 -3.777359 -1.528280 -34.755250 -8.038804 2.032835 37.134885 8.352300 5.446103 14.243280 0.000000 0.000000 0.000000 -0.062664 0.142350 -2.470097 2.499086 2.304352 -4.817218 -0.486182 -2.917857 9.084141 0.008170 -0.030717 0.011384 -0.903951 -1.059257 12.061207 -4.099924 -0.316668 23.545901 0.000000 0.000000 0.000000 0.458450 -0.791600 8.656317 -10.867768 -5.594724 4.430813 -43.091206 22.450367 17.846977 -110.313730 -86.439650 128.381055 0.000000 0.000000 0.000000 -3.019702 0.651329 8.114638 20.512832 6.927009 -0.130941 61.854384 -28.728039 -8.486233 -165.542708 75.845535 -169.044641 0.000000 0.000000 0.000000 
-0.886307 35.750603 16.951822 -179.950227 6.640853 -179.867650 -3.898327 -3.555772 8.958287 -14.119149 3.136493 -13.822019 14.997624 7.961671 19.180144 -1.442321 1.975273 3.696079 0.000000 0.000000 0.000000 2.452103 -1.711993 6.005872 -3.211631 -1.353712 -34.040550 -7.341222 2.554273 30.912661 9.366115 6.253134 15.746161 0.000000 0.000000 0.000000 -0.319046 -0.063014 -2.595144 2.593497 2.555452 -4.798378 -0.520669 -2.933656 9.057504 0.015226 -0.004666 0.015566 -0.878813 -1.124702 12.100281 -3.850652 -0.506920 23.594842 0.000000 0.000000 0.000000 0.490898 -0.834428 8.697061 -10.777217 -5.573169 4.580578 -42.697831 22.302695 18.705084 -111.515358 -86.555709 130.528248 0.000000 0.000000 0.000000 -3.041132 0.645252 8.163026 20.560162 6.581070 -0.265245 62.079856 -28.848397 -10.588956 -165.085973 75.523765 -168.838834 0.000000 0.000000 0.000000 
-0.743179 35.772125 16.561613 -179.977069 6.291603 -179.748313 -4.063865 -3.888948 9.269316 -13.531304 3.369639 -13.561754 14.671808 7.946925 19.520701 -1.427299 1.594279 3.116246 0.000000 0.000000 0.000000 2.604353 -1.882175 6.052504 -2.895929 -0.787947 -32.864063 -6.744351 3.690935 25.496794 10.349945 6.593204 18.662329 0.000000 0.000000 0.000000 -0.414177 -0.193626 -2.763985 2.749896 2.865342 -4.887726 -0.534579 -2.912270 9.054982 0.034410 0.052837 0.006657 -0.859280 -1.215381 12.188045 -3.607905 -0.670753 23.712183 0.000000 0.000000 0.000000 0.483113 -0.967320 8.862985 -10.749268 -5.607657 4.661375 -42.711222 22.287956 19.036323 -112.324585 -86.490610 132.225496 0.000000 0.000000 0.000000 -3.117514 0.453088 8.237545 20.551066 6.233312 -0.481876 62.177582 -28.945730 -12.057234 -164.778095 75.338899 -168.749058 0.000000 0.000000 0.000000 
-0.556140 35.765171 16.154808 -179.949516 5.873803 -179.778406 -4.124406 -4.203559 9.566310 -12.957668 3.540227 -13.277294 14.467328 7.770150 20.115262 -1.425678 1.127541 2.489793 0.000000 0.000000 0.000000 2.608137 -1.929875 6.201693 -2.926744 0.703370 -31.302863 -6.289345 4.999246 22.113832 11.073359 6.754458 20.410427 0.000000 0.000000 0.000000 -0.370899 -0.445988 -2.911033 2.915253 3.111627 -4.928939 -0.588798 -3.115482 9.111479 0.008237 -0.031094 0.046137 -0.923174 -1.212876 12.187073 -3.486167 -0.824530 23.870674 0.000000 0.000000 0.000000 0.443637 -0.880619 8.781256 -10.817860 -5.268035 4.800394 -43.011805 22.467865 19.142671 -114.777340 -86.612625 135.137670 0.000000 0.000000 0.000000 -3.184208 0.584397 8.281229 20.576775 6.254654 -0.556348 62.356096 -28.848912 -13.042164 -164.199319 75.318989 -168.372250 0.000000 0.000000 0.000000 
-0.322051 35.734707 15.738555 -179.908358 5.551120 -179.699818 -4.090356 -4.418154 9.741194 -12.332928 3.677948 -12.971236 14.180740 7.525134 21.028701 -1.412788 0.660225 1.993691 0.000000 0.000000 0.000000 2.720880 -2.009767 6.224277 -3.445359 3.129064 -30.089005 -6.118352 5.740879 21.661518 11.390804 6.913275 19.537676 0.000000 0.000000 0.000000 -0.264375 -0.571974 -3.171145 3.042144 3.232641 -5.038940 -0.619151 -3.099179 9.168786 0.003300 -0.045697 0.024706 -0.939425 -1.316296 12.292641 -3.391929 -0.940539 24.111365 0.000000 0.000000 0.000000 0.422110 -0.918259 8.837113 -10.911435 -4.935193 4.806380 -43.652074 22.711038 18.766158 -115.846074 -86.652622 136.623222 0.000000 0.000000 0.000000 -3.255377 0.489191 8.375093 20.575306 6.229979 -0.722105 62.451370 -28.633003 -13.428435 -163.711356 75.450204 -168.114984 0.000000 0.000000 0.000000 
-0.044366 35.699646 15.304841 -179.827884 5.200728 -179.587707 -3.993813 -4.637681 9.793033 -11.629955 3.667282 -12.674854 13.937575 7.068591 22.040092 -1.389643 0.206700 1.674281 0.000000 0.000000 0.000000 2.686400 -2.049009 6.250329 -3.363034 4.498580 -28.805107 -6.222263 6.326027 21.582044 11.365972 7.016572 17.861810 0.000000 0.000000 0.000000 -0.093936 -0.676560 -3.557433 3.121306 3.359641 -5.132080 -0.635701 -3.183239 9.233873 -0.014305 -0.055494 0.054825 -1.002645 -1.327744 12.331936 -3.455929 -1.022970 24.349735 0.000000 0.000000 0.000000 0.351163 -1.005236 8.835016 -11.062050 -4.562437 4.837593 -44.508395 23.056215 18.036609 -114.624672 -86.834859 135.683484 0.000000 0.000000 0.000000 -3.264614 0.447162 8.394080 20.625988 6.286994 -0.806616 62.686049 -28.172068 -13.656067 -162.918890 75.713508 -167.589155 0.000000 0.000000 0.000000 
0.290765 35.654934 14.838304 -179.823445 4.977138 -179.542191 -3.873776 -4.600680 9.740517 -10.872714 3.522626 -12.405537 13.680953 6.597017 23.045741 -1.339940 -0.396231 1.543051 0.000000 0.000000 0.000000 2.274710 -2.009694 6.160660 -1.535181 4.555250 -27.445621 -7.030641 6.819866 21.749546 10.648121 6.769640 16.363957 0.000000 0.000000 0.000000 0.013545 -0.707653 -3.922924 3.100494 3.446803 -5.245667 -0.647825 -3.236873 9.297309 -0.003169 -0.055578 0.031893 -1.017532 -1.394329 12.489624 -3.544603 -1.057499 24.618604 0.000000 0.000000 0.000000 0.352600 -1.076055 8.943712 -11.161637 -4.245038 4.745333 -45.293348 23.398758 17.175873 -111.780390 -86.932927 132.931628 0.000000 0.000000 0.000000 -3.290541 0.382152 8.519017 20.651260 6.408039 -0.914369 63.018344 -27.627383 -13.733071 -162.272181 76.056253 -167.257071 0.000000 0.000000 0.000000 
0.671594 35.622417 14.358701 -179.717385 4.730701 -179.451609 -3.671563 -4.365062 9.686422 -9.970722 3.299292 -12.139393 13.478857 6.284572 24.077496 -1.679168 -0.840808 1.644503 0.000000 0.000000 0.000000 2.007248 -1.858122 6.155463 -0.205466 4.911917 -26.124893 -7.093875 7.102599 22.000562 9.336087 6.159511 14.729781 0.000000 0.000000 0.000000 0.133245 -0.677492 -4.320219 3.039681 3.441396 -5.323432 -0.618704 -3.287190 9.343797 -0.005704 -0.043288 0.031135 -0.998476 -1.458822 12.570145 -3.680708 -1.057752 24.901189 0.000000 0.000000 0.000000 0.369805 -1.202490 8.952825 -11.129491 -4.001836 4.672532 -46.112929 23.747436 16.345580 -108.452360 -86.961975 129.611104 0.000000 0.000000 0.000000 -3.231079 0.267071 8.489084 20.675071 6.445895 -0.977138 63.546024 -27.046458 -13.910140 -161.640115 76.262006 -166.979697 0.000000 0.000000 0.000000 
1.094966 35.605976 13.893333 -179.667279 4.406920 -179.358090 -3.499093 -4.054659 9.707196 -8.878776 2.980914 -11.916040 13.129217 5.963394 25.137920 -1.934707 -1.282965 1.976432 0.000000 0.000000 0.000000 1.925825 -1.722598 6.170666 0.959780 5.251521 -24.779146 -6.940440 7.173878 22.165637 8.156337 5.485304 13.207280 0.000000 0.000000 0.000000 0.166281 -0.732384 -4.585393 2.923350 3.314181 -5.560882 -0.549541 -3.386600 9.328109 -0.021875 -0.100546 0.074389 -0.974440 -1.509653 12.700247 -3.850824 -1.087351 25.103925 0.000000 0.000000 0.000000 0.423599 -1.232053 8.929409 -10.981900 -3.747708 4.718181 -46.517167 23.912171 16.036552 -106.640946 -87.070493 127.716136 0.000000 0.000000 0.000000 -3.138393 0.347153 8.482394 20.729947 6.590269 -0.931998 64.285843 -26.351799 -14.572982 -161.203857 76.442289 -166.934290 0.000000 0.000000 0.000000 
1.559153 35.608204 13.479393 -179.627760 4.065925 -179.250392 -3.356657 -3.782114 9.749826 -7.600566 2.665993 -11.919359 12.679094 5.568742 26.288116 -2.269447 -1.702629 2.503838 0.000000 0.000000 0.000000 1.923636 -1.705611 6.152791 1.947629 5.489349 -23.447105 -6.714300 7.102807 22.055082 6.984996 4.779754 11.956431 0.000000 0.000000 0.000000 0.196404 -0.784371 -4.804661 2.778564 3.181139 -5.759181 -0.507489 -3.449759 9.283891 -0.019375 -0.135751 0.064676 -0.904501 -1.540811 12.775817 -3.992072 -0.986432 25.266862 0.000000 0.000000 0.000000 0.498950 -1.270915 8.903597 -10.688482 -3.641262 4.748489 -46.705295 23.930717 16.080068 -107.244523 -87.020797 128.166259 0.000000 0.000000 0.000000 -3.092250 0.241388 8.456385 20.702805 6.619519 -1.048700 65.145668 -25.713080 -15.483885 -160.892305 76.626226 -167.029230 0.000000 0.000000 0.000000 
2.050061 35.621155 13.142982 -179.573842 3.697521 -179.152679 -3.244006 -3.626401 9.819281 -6.195762 2.422409 -12.291421 12.155117 5.024293 27.665698 -2.647647 -2.092425 3.156230 0.000000 0.000000 0.000000 2.032909 -1.864365 6.069461 2.782155 5.677423 -22.222915 -6.504885 6.833494 21.739927 5.876147 4.192030 10.974950 0.000000 0.000000 0.000000 0.276041 -0.904903 -4.967143 2.635124 3.065921 -5.927785 -0.487435 -3.478590 9.268480 -0.047058 -0.133192 0.083723 -0.854517 -1.559946 12.674618 -4.112564 -0.907774 25.228943 0.000000 0.000000 0.000000 0.527147 -1.304504 8.867762 -10.220839 -3.630791 4.728696 -46.486312 23.676485 16.553162 -108.612726 -86.826765 129.350450 0.000000 0.000000 0.000000 -3.028772 0.190945 8.390417 20.691778 6.586520 -1.018127 65.846521 -25.127168 -16.313810 -160.690350 76.756109 -167.215243 0.000000 0.000000 0.000000 
2.546603 35.642136 12.884298 -179.640641 3.605259 -179.290936 -2.987428 -4.048367 9.668267 -4.756895 2.272964 -13.368442 11.400292 4.021045 29.593021 -3.563854 -2.965267 4.946763 0.000000 0.000000 0.000000 2.185950 -2.134572 5.965800 3.527588 5.858878 -21.107002 -6.253164 6.297837 21.457333 4.942949 3.863323 10.307572 0.000000 0.000000 0.000000 0.312690 -1.038093 -4.923138 2.486710 3.032587 -5.996372 -0.506198 -3.467380 9.272015 -0.024065 -0.100355 0.094003 -0.892813 -1.536194 12.668563 -4.228110 -0.861563 25.167377 0.000000 0.000000 0.000000 0.550228 -1.275878 8.842319 -9.767570 -3.668539 4.660170 -45.895419 23.169453 17.201893 -108.558890 -86.729537 129.106326 0.000000 0.000000 0.000000 -3.087673 0.255439 8.411036 20.608906 6.718247 -1.003617 66.156051 -24.771295 -16.067185 -160.456962 77.218519 -167.286578 0.000000 0.000000 0.000000 
